<svg id="visual" viewBox="0 0 960 540" width="960" height="540" xmlns="http://www.w3.org/2000/svg" xmlns:xlink="http://www.w3.org/1999/xlink" version="1.1"><rect width="960" height="540" fill="#715DF2"></rect><g><g transform="translate(853 385)"><path d="M37.9 -30.1C48.7 -16.7 56.7 -1 53.6 12.3C50.6 25.5 36.6 36.3 21.1 43.7C5.5 51.2 -11.6 55.3 -23.8 49.4C-36.1 43.6 -43.5 27.6 -46.4 11.6C-49.2 -4.4 -47.5 -20.5 -39 -33.4C-30.5 -46.2 -15.3 -56 -0.8 -55.3C13.6 -54.7 27.1 -43.6 37.9 -30.1Z" fill="#F7770F"></path></g><g transform="translate(318 21)"><path d="M35.4 -28.4C43.6 -18 46.3 -3.4 43.4 10.2C40.5 23.8 32.1 36.5 19.9 43.1C7.6 49.6 -8.4 50.2 -21.3 44C-34.3 37.9 -44.2 25.1 -47.4 10.9C-50.6 -3.4 -47.2 -19.1 -38.1 -29.7C-29.1 -40.3 -14.6 -45.8 -0.5 -45.4C13.6 -45 27.3 -38.8 35.4 -28.4Z" fill="#F7770F"></path></g><g transform="translate(431 253)"><path d="M19.6 -16C24.5 -9.3 27.2 -1.3 26 6.6C24.7 14.5 19.6 22.2 12.6 25.3C5.5 28.4 -3.3 26.9 -11.4 23.2C-19.4 19.5 -26.6 13.6 -28.8 6C-31 -1.6 -28.2 -10.9 -22.5 -17.8C-16.9 -24.6 -8.5 -29 -0.6 -28.5C7.3 -28 14.6 -22.7 19.6 -16Z" fill="#F7770F"></path></g><g transform="translate(164 155)"><path d="M23.7 -19.1C29.4 -11.7 32 -1.9 30.4 7.7C28.8 17.3 23.1 26.7 15 30.3C6.8 33.9 -3.7 31.7 -12.6 27.1C-21.4 22.4 -28.7 15.3 -31 6.6C-33.4 -2.1 -30.9 -12.3 -24.9 -19.8C-18.9 -27.3 -9.4 -32 -0.2 -31.8C9 -31.6 17.9 -26.5 23.7 -19.1Z" fill="#F7770F"></path></g><g transform="translate(462 389)"><path d="M26.6 -20.3C33.2 -12.9 36.5 -1.9 34.2 7.7C31.9 17.3 24.1 25.6 14.5 30.3C4.8 35.1 -6.6 36.3 -14.6 31.9C-22.6 27.5 -27.1 17.3 -28.3 7.8C-29.4 -1.8 -27.2 -10.8 -21.9 -18C-16.6 -25.1 -8.3 -30.4 0.8 -31.1C10 -31.7 19.9 -27.8 26.6 -20.3Z" fill="#F7770F"></path></g><g transform="translate(41 323)"><path d="M19.3 -15.2C24.7 -8.6 28.6 -0.6 27.5 7.1C26.4 14.8 20.3 22.3 12.6 25.9C4.9 29.5 -4.5 29.2 -12 25.5C-19.6 21.7 -25.1 14.3 -26.6 6.4C-28.2 -1.4 -25.6 -9.9 -20.5 -16.5C-15.4 -23 -7.7 -27.6 -0.4 -27.4C7 -27.1 13.9 -21.9 19.3 -15.2Z" fill="#F7770F"></path></g><g transform="translate(553 194)"><path d="M37.4 -31.3C46 -19 48.9 -3.6 46 11.1C43.2 25.7 34.4 39.6 21.9 45.8C9.3 52 -7.2 50.5 -21.2 43.8C-35.2 37.1 -46.8 25.2 -49.8 11.5C-52.9 -2.3 -47.4 -17.8 -37.7 -30.4C-28 -42.9 -14 -52.4 0.2 -52.6C14.4 -52.8 28.7 -43.6 37.4 -31.3Z" fill="#F7770F"></path></g><g transform="translate(809 119)"><path d="M20.7 -17.8C25 -11.1 25.3 -2.7 23.5 5.5C21.8 13.7 18 21.6 11.4 25.3C4.9 29 -4.3 28.6 -11.8 24.9C-19.2 21.1 -24.8 14 -26 6.6C-27.1 -0.9 -24 -8.7 -18.9 -15.5C-13.8 -22.4 -6.9 -28.2 0.6 -28.7C8.2 -29.2 16.4 -24.4 20.7 -17.8Z" fill="#F7770F"></path></g><g transform="translate(636 356)"><path d="M37.3 -31.9C44.8 -20.3 45.1 -5 41.8 9.6C38.5 24.2 31.7 38 20.1 44.8C8.5 51.5 -8 51.2 -21.5 44.7C-35 38.2 -45.6 25.5 -49.1 10.9C-52.6 -3.6 -49.2 -20 -39.8 -32.1C-30.5 -44.1 -15.2 -51.8 -0.2 -51.7C14.9 -51.5 29.7 -43.6 37.3 -31.9Z" fill="#F7770F"></path></g><g transform="translate(321 401)"><path d="M43.4 -34.7C52.7 -22.9 54.4 -5 50.2 10.7C46 26.5 36 40.1 22.9 45.8C9.8 51.4 -6.4 49.1 -18.8 42C-31.2 34.8 -39.9 23 -44.5 8.5C-49.2 -6 -49.8 -23.1 -41.7 -34.6C-33.6 -46.2 -16.8 -52.2 0.1 -52.2C17 -52.3 34 -46.5 43.4 -34.7Z" fill="#F7770F"></path></g><g transform="translate(456 59)"><path d="M25.9 -21.1C31.9 -13.1 34.1 -2.4 32.1 7.6C30 17.6 23.8 27 15 31.2C6.3 35.4 -5 34.5 -15.7 30.3C-26.5 26 -36.8 18.4 -39.8 8.3C-42.7 -1.8 -38.3 -14.4 -30.4 -22.8C-22.5 -31.3 -11.3 -35.5 -0.7 -35C9.9 -34.5 19.9 -29.1 25.9 -21.1Z" fill="#F7770F"></path></g><g transform="translate(735 4)"><path d="M31.2 -25.9C38.1 -16.2 39.7 -3.4 36.6 7.5C33.5 18.5 25.5 27.5 15 33.5C4.5 39.5 -8.7 42.4 -19.5 38.1C-30.2 33.8 -38.7 22.3 -40.9 10C-43.1 -2.2 -39.1 -15.1 -31.2 -25C-23.4 -34.9 -11.7 -41.9 0.2 -42C12.1 -42.2 24.3 -35.6 31.2 -25.9Z" fill="#F7770F"></path></g><g transform="translate(149 494)"><path d="M36.9 -30.9C46 -18.1 50.2 -2.8 46.8 10.3C43.5 23.4 32.6 34.3 18.9 41.8C5.2 49.4 -11.3 53.6 -23.5 48C-35.7 42.4 -43.6 27.1 -46.1 11.7C-48.7 -3.6 -45.9 -19 -37.3 -31.7C-28.7 -44.4 -14.4 -54.4 -0.2 -54.2C13.9 -54.1 27.9 -43.7 36.9 -30.9Z" fill="#F7770F"></path></g><g transform="translate(185 347)"><path d="M32.8 -25.4C40.7 -16.3 44 -2.8 41.3 9.6C38.6 22 30 33.2 19 37.7C8.1 42.3 -5.2 40.3 -17.3 34.9C-29.5 29.5 -40.6 20.6 -44.4 8.7C-48.3 -3.2 -45 -18.2 -36.4 -27.5C-27.8 -36.7 -13.9 -40.3 -0.7 -39.7C12.5 -39.1 25 -34.5 32.8 -25.4Z" fill="#F7770F"></path></g><g transform="translate(712 532)"><path d="M20.6 -17.5C25.5 -10.4 27.3 -1.9 25.8 6.4C24.4 14.7 19.6 22.8 12.5 26.4C5.4 30 -4.1 29.1 -12 25.2C-19.9 21.2 -26.2 14.3 -27.6 6.7C-29 -0.9 -25.4 -9.1 -20 -16.4C-14.6 -23.6 -7.3 -29.8 0.3 -30C7.9 -30.3 15.8 -24.6 20.6 -17.5Z" fill="#F7770F"></path></g><g transform="translate(19 77)"><path d="M22.1 -16.6C28 -10.4 31.4 -1.2 29.9 7.5C28.4 16.1 22 24.3 13.7 28.2C5.4 32 -4.8 31.7 -13 27.5C-21.2 23.4 -27.3 15.5 -29.5 6.6C-31.7 -2.4 -29.9 -12.4 -24.4 -18.6C-18.8 -24.7 -9.4 -26.9 -0.6 -26.4C8.2 -25.9 16.3 -22.7 22.1 -16.6Z" fill="#F7770F"></path></g><g transform="translate(548 495)"><path d="M20.6 -16.6C26 -9.6 29.3 -1.1 27.6 6.3C25.9 13.6 19.2 19.7 11.4 23.3C3.6 26.9 -5.2 27.9 -12.4 24.8C-19.7 21.7 -25.5 14.4 -27.5 6.1C-29.6 -2.3 -28 -11.7 -22.8 -18.7C-17.6 -25.6 -8.8 -30.2 -0.6 -29.7C7.6 -29.3 15.1 -23.7 20.6 -16.6Z" fill="#F7770F"></path></g><g transform="translate(384 533)"><path d="M35.9 -27.8C44.9 -17.4 49.3 -2.6 46.1 10.1C42.8 22.8 31.9 33.3 19.6 38.2C7.3 43.2 -6.5 42.7 -19.4 37.6C-32.3 32.4 -44.3 22.6 -47.9 10.1C-51.4 -2.5 -46.5 -17.8 -37.1 -28.3C-27.7 -38.8 -13.9 -44.5 -0.2 -44.3C13.5 -44.2 27 -38.2 35.9 -27.8Z" fill="#F7770F"></path></g><g transform="translate(931 267)"><path d="M31.7 -23.9C40.8 -13.9 47.6 -0.8 45.7 11.6C43.8 24 33.3 35.5 21.1 40C8.9 44.4 -4.9 41.6 -17.5 35.8C-30 29.9 -41.3 21 -45.3 8.8C-49.3 -3.3 -45.9 -18.6 -37.1 -28.5C-28.4 -38.5 -14.2 -43 -1.4 -41.9C11.3 -40.8 22.7 -33.9 31.7 -23.9Z" fill="#F7770F"></path></g><g transform="translate(946 13)"><path d="M29.3 -22.8C36 -14.9 38.2 -2.9 35.6 7.9C33 18.7 25.6 28.2 16.2 32.2C6.8 36.2 -4.6 34.7 -14.7 30C-24.9 25.3 -33.8 17.5 -35.6 8.4C-37.5 -0.7 -32.3 -11.2 -25.2 -19.1C-18.1 -27 -9 -32.4 1.1 -33.3C11.3 -34.2 22.6 -30.6 29.3 -22.8Z" fill="#F7770F"></path></g><g transform="translate(859 537)"><path d="M25.3 -20.4C30.4 -13.8 30.5 -3.4 28.3 6.5C26.1 16.4 21.6 25.9 14.2 29.4C6.9 32.9 -3.3 30.4 -12.5 25.9C-21.8 21.5 -30.2 15.1 -32.2 7.1C-34.3 -1 -30.1 -10.8 -23.7 -17.8C-17.3 -24.7 -8.6 -28.8 0.7 -29.4C10.1 -30 20.2 -27.1 25.3 -20.4Z" fill="#F7770F"></path></g><g transform="translate(720 251)"><path d="M20.6 -16.3C25.7 -10 28.3 -1.5 26.9 6.7C25.5 14.8 20.1 22.6 12.7 26.2C5.2 29.7 -4.2 29 -12.1 25.1C-20 21.3 -26.4 14.4 -28 6.6C-29.6 -1.2 -26.3 -9.8 -20.9 -16.2C-15.4 -22.5 -7.7 -26.6 0 -26.6C7.7 -26.7 15.4 -22.6 20.6 -16.3Z" fill="#F7770F"></path></g><g transform="translate(601 22)"><path d="M19.7 -15.7C24.5 -9.6 26.6 -1.5 24.7 5.1C22.7 11.7 16.7 16.8 9.9 19.9C3 22.9 -4.5 23.9 -10.4 21.2C-16.4 18.5 -20.7 12.1 -21.8 5.5C-22.8 -1 -20.5 -7.8 -16.4 -13.7C-12.2 -19.5 -6.1 -24.5 0.7 -25.1C7.4 -25.6 14.8 -21.7 19.7 -15.7Z" fill="#F7770F"></path></g><g transform="translate(322 164)"><path d="M16.7 -13.2C21 -7.9 23.4 -1 21.9 4.8C20.4 10.6 15 15.2 9 17.9C2.9 20.5 -3.7 21 -8.9 18.5C-14 16 -17.6 10.4 -18.8 4.5C-20.1 -1.5 -18.9 -7.8 -15.3 -12.9C-11.8 -18 -5.9 -22 0.2 -22.1C6.2 -22.2 12.4 -18.5 16.7 -13.2Z" fill="#F7770F"></path></g><g transform="translate(165 15)"><path d="M35.4 -29.2C43.4 -18.3 45.7 -3.7 42.6 9.7C39.6 23.1 31.2 35.3 19.7 40.9C8.1 46.5 -6.6 45.4 -17.8 39.2C-29 33 -36.7 21.5 -38.9 9.5C-41.1 -2.5 -37.9 -15.1 -30.6 -25.9C-23.2 -36.7 -11.6 -45.6 1.1 -46.4C13.7 -47.3 27.5 -40.1 35.4 -29.2Z" fill="#F7770F"></path></g><g transform="translate(10 457)"><path d="M15 -11C19.4 -6.5 22.8 -0.3 21.9 5.4C20.9 11.1 15.6 16.1 9.3 19C3.1 21.8 -3.9 22.3 -9.8 19.7C-15.6 17.1 -20.1 11.4 -21.6 4.9C-23.2 -1.6 -21.7 -8.8 -17.5 -13.3C-13.4 -17.8 -6.7 -19.5 -0.7 -18.9C5.3 -18.4 10.7 -15.6 15 -11Z" fill="#F7770F"></path></g></g></svg>